<?xml version="1.0" encoding="UTF-8" standalone="no"?>
<!-- Generator: Adobe Illustrator 15.0.0, SVG Export Plug-In . SVG Version: 6.00 Build 0)  -->

<svg
   xmlns:dc="http://purl.org/dc/elements/1.1/"
   xmlns:cc="http://creativecommons.org/ns#"
   xmlns:rdf="http://www.w3.org/1999/02/22-rdf-syntax-ns#"
   xmlns:svg="http://www.w3.org/2000/svg"
   xmlns="http://www.w3.org/2000/svg"
   xmlns:sodipodi="http://sodipodi.sourceforge.net/DTD/sodipodi-0.dtd"
   xmlns:inkscape="http://www.inkscape.org/namespaces/inkscape"
   sodipodi:docname="Table grün2.svg"
   inkscape:version="0.48.2 r9819"
   xml:space="preserve"
   enable-background="new 0 0 597.875 308"
   viewBox="0 0 597.875 308"
   height="308px"
   width="597.875px"
   y="0px"
   x="0px"
   id="Layer_1"
   version="1.1"><sodipodi:namedview
   pagecolor="#ffffff"
   bordercolor="#666666"
   borderopacity="1"
   objecttolerance="10"
   gridtolerance="10"
   guidetolerance="10"
   inkscape:pageopacity="0"
   inkscape:pageshadow="2"
   inkscape:window-width="1920"
   inkscape:window-height="1017"
   id="namedview5338"
   showgrid="false"
   inkscape:zoom="1.1540874"
   inkscape:cx="295.54644"
   inkscape:cy="42.381714"
   inkscape:window-x="-4"
   inkscape:window-y="-4"
   inkscape:window-maximized="1"
   inkscape:current-layer="Layer_1" /><metadata
   id="metadata5342"><rdf:RDF><cc:Work
       rdf:about=""><dc:format>image/svg+xml</dc:format><dc:type
         rdf:resource="http://purl.org/dc/dcmitype/StillImage" /><dc:title></dc:title></cc:Work></rdf:RDF></metadata><defs
   id="defs5340" />
<radialGradient
   id="SVGID_1_"
   cx="297.1648"
   cy="164.0378"
   r="283.5024"
   gradientTransform="matrix(1.0071 0 0 -0.5154 -0.8994 231.2945)"
   gradientUnits="userSpaceOnUse">
	<stop
   offset="0"
   style="stop-color:#009920"
   id="stop4" />
	<stop
   offset="0.6497"
   style="stop-color:#009920"
   id="stop6" />
	<stop
   offset="0.7409"
   style="stop-color:#00931F"
   id="stop8" />
	<stop
   offset="0.8609"
   style="stop-color:#00831B"
   id="stop10" />
	<stop
   offset="0.9188"
   style="stop-color:#007818"
   id="stop12" />
	<stop
   offset="0.9617"
   style="stop-color:#007115"
   id="stop14" />
	<stop
   offset="1"
   style="stop-color:#006611"
   id="stop16" />
</radialGradient>

<path
   sodipodi:type="arc"
   style="opacity:0.97000003999999995;fill:#385a6d;fill-opacity:1;fill-rule:nonzero;stroke:none;stroke-opacity:1"
   id="path5009"
   sodipodi:cx="323.63235"
   sodipodi:cy="511.62408"
   sodipodi:rx="285.50699"
   sodipodi:ry="146.43605"
   d="m 609.13934,511.62408 a 285.50699,146.43605 0 1 1 -571.013974,0 285.50699,146.43605 0 1 1 571.013974,0 z"
   transform="translate(-25.561322,-363.49068)" /><g
   id="dark_wood_1_">
	
		<linearGradient
   id="SVGID_2_"
   gradientUnits="userSpaceOnUse"
   x1="298.4807"
   y1="242.6326"
   x2="296.9904"
   y2="-6.7495"
   gradientTransform="matrix(1 0 0 -1 -0.0151 307.6987)">
		<stop
   offset="0"
   style="stop-color:#631D09"
   id="stop22" />
		<stop
   offset="0.3068"
   style="stop-color:#611D09"
   id="stop24" />
		<stop
   offset="0.4828"
   style="stop-color:#581B0A"
   id="stop26" />
		<stop
   offset="0.5584"
   style="stop-color:#521A0B"
   id="stop28" />
		<stop
   offset="0.5845"
   style="stop-color:#561C0C"
   id="stop30" />
		<stop
   offset="0.6089"
   style="stop-color:#61220F"
   id="stop32" />
		<stop
   offset="0.6325"
   style="stop-color:#742B14"
   id="stop34" />
		<stop
   offset="0.6548"
   style="stop-color:#8D381A"
   id="stop36" />
		<stop
   offset="0.6704"
   style="stop-color:#7E3217"
   id="stop38" />
		<stop
   offset="0.7003"
   style="stop-color:#58220F"
   id="stop40" />
		<stop
   offset="0.736"
   style="stop-color:#220B03"
   id="stop42" />
		<stop
   offset="0.8325"
   style="stop-color:#8D381A"
   id="stop44" />
		<stop
   offset="0.9086"
   style="stop-color:#220B03"
   id="stop46" />
		<stop
   offset="1"
   style="stop-color:#220B03"
   id="stop48" />
	</linearGradient>
	<path
   fill="url(#SVGID_2_-93)"
   d="M297.938-1C132.838-1-1,68.725-1,153.5C-1,238.276,132.838,307,297.938,307   c165.099,0,298.937-68.724,298.937-153.5C596.875,68.725,463.037-1,297.938-1z M297.938,291.155   c-157.396,0-284.987-64.734-284.987-144.588S140.543,2.971,297.938,2.971c157.394,0,284.988,63.743,284.988,143.596   C582.927,226.421,455.332,291.155,297.938,291.155z"
   id="path50" />
<linearGradient
   id="SVGID_2_-93"
   gradientUnits="userSpaceOnUse"
   x1="298.4807"
   y1="242.6326"
   x2="296.9904"
   y2="-6.7495"
   gradientTransform="matrix(1 0 0 -1 -0.0151 307.6987)">
		<stop
   offset="0"
   style="stop-color:#363636"
   id="stop4065" />
		<stop
   offset="0.3068"
   style="stop-color:#353535"
   id="stop4067" />
		<stop
   offset="0.4828"
   style="stop-color:#313131"
   id="stop4069" />
		<stop
   offset="0.5584"
   style="stop-color:#2e2e2e"
   id="stop4071" />
		<stop
   offset="0.5845"
   style="stop-color:#313131"
   id="stop4073" />
		<stop
   offset="0.6089"
   style="stop-color:#383838"
   id="stop4075" />
		<stop
   offset="0.6325"
   style="stop-color:#444444"
   id="stop4077" />
		<stop
   offset="0.6548"
   style="stop-color:#535353"
   id="stop4079" />
		<stop
   offset="0.6704"
   style="stop-color:#4a4a4a"
   id="stop4081" />
		<stop
   offset="0.7003"
   style="stop-color:#333333"
   id="stop4083" />
		<stop
   offset="0.736"
   style="stop-color:#121212"
   id="stop4085" />
		<stop
   offset="0.8325"
   style="stop-color:#535353"
   id="stop4087" />
		<stop
   offset="0.9086"
   style="stop-color:#121212"
   id="stop4089" />
		<stop
   offset="1"
   style="stop-color:#121212"
   id="stop4091" />
	</linearGradient>
	</g>

<g
   id="shine_2_">
	
		<linearGradient
   id="SVGID_267_"
   gradientUnits="userSpaceOnUse"
   x1="298.3909"
   y1="306.699"
   x2="298.3909"
   y2="14.8245"
   gradientTransform="matrix(1 0 0 -1 -0.0151 307.6987)">
		<stop
   offset="0"
   style="stop-color:#A46851"
   id="stop5146" />
		<stop
   offset="0.3198"
   style="stop-color:#8D381A"
   id="stop5148" />
		<stop
   offset="0.5635"
   style="stop-color:#7B2B0E"
   id="stop5150" />
		<stop
   offset="0.807"
   style="stop-color:#742B11"
   id="stop5152" />
		<stop
   offset="1"
   style="stop-color:#6B2A15"
   id="stop5154" />
	</linearGradient>
	<path
   fill="url(#SVGID_267_-310)"
   d="M297.938,1C140.543,1,10.89,66.715,10.89,146.567c0,79.854,129.652,146.308,287.048,146.308   c157.394,0,287.923-66.454,287.923-146.308C585.861,66.715,455.332,1,297.938,1z M297.938,291.04   c-155.193,0-283.063-64.501-283.063-142.986C14.876,69.567,142.745,2,297.938,2s283.937,67.567,283.937,146.054   C581.875,226.539,453.132,291.04,297.938,291.04z"
   id="path5156" />
<linearGradient
   id="SVGID_267_-310"
   gradientUnits="userSpaceOnUse"
   x1="298.3909"
   y1="306.699"
   x2="298.3909"
   y2="14.8245"
   gradientTransform="matrix(1 0 0 -1 -0.0151 307.6987)">
		<stop
   offset="0"
   style="stop-color:#7a7a7a"
   id="stop4546" />
		<stop
   offset="0.3198"
   style="stop-color:#535353"
   id="stop4548" />
		<stop
   offset="0.5635"
   style="stop-color:#444444"
   id="stop4550" />
		<stop
   offset="0.807"
   style="stop-color:#424242"
   id="stop4552" />
		<stop
   offset="1"
   style="stop-color:#404040"
   id="stop4554" />
	</linearGradient>
	</g>
<g
   id="inner_dark_wood_2_">
	<path
   fill="#272727"
   d="M297.938,2C141.644,2,12.883,68.799,12.883,147.558S141.644,291,297.938,291   c-155.193,0-283.063-64.461-283.063-142.946C14.876,69.567,142.745,2.99,297.938,2.99s283.945,66.577,283.945,145.063   C581.884,226.539,453.132,291,297.938,291c156.294,0,285.937-64.682,285.937-143.441S454.232,2,297.938,2z"
   id="path5159" />
</g>
<g
   display="none"
   id="g5161">
	<g
   display="inline"
   id="g5163">
		
			<radialGradient
   id="SVGID_268_"
   cx="283.1111"
   cy="149.5906"
   r="266.0169"
   gradientTransform="matrix(1.0234 0 0 -1 -4.0527 307.6987)"
   gradientUnits="userSpaceOnUse">
			<stop
   offset="0"
   style="stop-color:#00891D"
   id="stop5166" />
			<stop
   offset="0.5812"
   style="stop-color:#00891D"
   id="stop5168" />
			<stop
   offset="0.6687"
   style="stop-color:#00891D"
   id="stop5170" />
			<stop
   offset="1"
   style="stop-color:#007818"
   id="stop5172" />
		</radialGradient>
		<polygon
   fill="url(#SVGID_268_)"
   points="273.269,50.727 269.941,56.944 243.979,56.944 240.053,63.421 266.47,63.421     262.885,70.125 235.954,70.125 227.905,83.225 215.646,83.225 236.607,50.727   "
   id="polygon5174" />
	</g>
	<g
   display="inline"
   id="g5176">
		
			<radialGradient
   id="SVGID_269_"
   cx="283.1052"
   cy="149.5906"
   r="266.0244"
   gradientTransform="matrix(1.0234 0 0 -1 -4.0527 307.6987)"
   gradientUnits="userSpaceOnUse">
			<stop
   offset="0"
   style="stop-color:#00891D"
   id="stop5179" />
			<stop
   offset="0.5812"
   style="stop-color:#00891D"
   id="stop5181" />
			<stop
   offset="0.6687"
   style="stop-color:#00891D"
   id="stop5183" />
			<stop
   offset="1"
   style="stop-color:#007818"
   id="stop5185" />
		</radialGradient>
		<polygon
   fill="url(#SVGID_269_)"
   points="343.881,50.727 333.24,83.225 321.295,83.225 332.994,50.727   "
   id="polygon5187" />
	</g>
	<g
   display="inline"
   id="g5189">
		
			<radialGradient
   id="SVGID_270_"
   cx="283.1116"
   cy="149.5906"
   r="266.0152"
   gradientTransform="matrix(1.0234 0 0 -1 -4.0527 307.6987)"
   gradientUnits="userSpaceOnUse">
			<stop
   offset="0"
   style="stop-color:#00891D"
   id="stop5192" />
			<stop
   offset="0.5812"
   style="stop-color:#00891D"
   id="stop5194" />
			<stop
   offset="0.6687"
   style="stop-color:#00891D"
   id="stop5196" />
			<stop
   offset="1"
   style="stop-color:#007818"
   id="stop5198" />
		</radialGradient>
		<polygon
   fill="url(#SVGID_270_)"
   points="366.297,50.727 357.809,83.225 345.865,83.225 355.41,50.727   "
   id="polygon5200" />
	</g>
	<g
   display="inline"
   id="g5202">
		
			<radialGradient
   id="SVGID_271_"
   cx="283.1101"
   cy="149.5906"
   r="266.0168"
   gradientTransform="matrix(1.0234 0 0 -1 -4.0527 307.6987)"
   gradientUnits="userSpaceOnUse">
			<stop
   offset="0"
   style="stop-color:#00891D"
   id="stop5205" />
			<stop
   offset="0.5812"
   style="stop-color:#00891D"
   id="stop5207" />
			<stop
   offset="0.6687"
   style="stop-color:#00891D"
   id="stop5209" />
			<stop
   offset="1"
   style="stop-color:#007818"
   id="stop5211" />
		</radialGradient>
		<path
   fill="url(#SVGID_271_)"
   d="M435.07,104.058c1.183,1.335,2.031,2.728,2.547,4.125c0.521,1.406,0.701,2.816,0.549,4.175    c-0.153,1.367-0.647,2.68-1.477,3.88c-0.834,1.207-2.008,2.298-3.516,3.213l-38.859,23.925l0.205,3.514l0.838,14.653l0.166,2.798    l-3.662,0.515c-1.006,0.142-2.191,0.265-3.484,0.37c-1.293,0.104-2.692,0.19-4.125,0.258c-1.434,0.067-2.896,0.119-4.319,0.152    c-1.422,0.034-2.804,0.05-4.066,0.05c-1.49,0-2.932-0.028-4.322-0.088c-1.393-0.059-2.733-0.146-4.026-0.263    c-1.293-0.115-2.539-0.26-3.74-0.43c-1.199-0.172-2.354-0.37-3.463-0.596l-59.236,36.483c-1.404,0.764-2.885,1.438-4.428,2.022    c-1.546,0.584-3.155,1.077-4.813,1.476c-1.659,0.397-3.367,0.699-5.11,0.901c-1.744,0.203-3.522,0.306-5.321,0.306    c-2.698,0-5.313-0.233-7.833-0.697c-2.516-0.466-4.934-1.158-7.249-2.08c-2.306-0.916-4.504-2.059-6.589-3.416    c-2.072-1.352-4.028-2.917-5.861-4.689l-32.031-29.948H189.22h-6.851l2.929-4.854l11.298-18.755L149.67,97.177h31.554l5.458-7.675    l1.423-2h3.352h110.933h5.68l-1.336,3.412l-2.459,6.263h7.463l2.854-7.675l0.744-2h3.353h24.662h5.682l-0.961,3.412l-1.771,6.263    h7.535l0.47-1.699l0.372-1.38l2.048-0.491l25.713-6.191l7.424-1.786l-0.867,5.021l-1.127,6.526h30.078    c1.701,0,3.381,0.162,5.002,0.471c1.623,0.309,3.191,0.765,4.666,1.354c1.478,0.592,2.861,1.316,4.115,2.161    C432.986,102.009,434.115,102.98,435.07,104.058z M190.096,160.801h35.116l30.007-58.558h42.382l4.863-12.04H190.735l-8.418,12.04    h42.373L190.096,160.801 M400.1,118.562l1.491-11.046H381.32l3.254-17.567l-25.852,6.275l-2.961,11.292h-6.048l-3.258,10.996    h6.496l-2.402,9.568l-3.719,14.841c-0.811,3.214-0.764,5.997,0.084,8.369c0.857,2.397,2.535,4.362,4.967,5.918    c2.451,1.568,5.662,2.716,9.562,3.473c3.912,0.76,8.506,1.123,13.699,1.123c1.233,0,2.562-0.017,3.916-0.048    c1.352-0.03,2.729-0.078,4.063-0.142c1.334-0.063,2.625-0.142,3.806-0.235c1.18-0.093,2.247-0.205,3.137-0.331l-0.662-14.611    c-0.203,0.025-0.504,0.054-0.869,0.081c-0.365,0.026-0.791,0.053-1.24,0.075c-0.45,0.021-0.926,0.042-1.387,0.055    s-0.908,0.021-1.305,0.021c-1.396,0-2.732-0.051-3.938-0.204c-1.206-0.152-2.278-0.405-3.147-0.81    c-0.869-0.403-1.535-0.956-1.929-1.706c-0.391-0.747-0.512-1.688-0.289-2.873l3.957-22.514H400.1 M293.428,160.801h29.506    l20.787-70.597h-24.841L293.428,160.801 M274.027,160.801l19.911-49.309h-26.26l-23.147,49.309H274.027"
   id="path5213" />
	</g>
	<g
   display="inline"
   id="g5215">
		
			<radialGradient
   id="SVGID_272_"
   cx="283.1106"
   cy="149.5881"
   r="266.0248"
   gradientTransform="matrix(1.0234 0 0 -1 -4.0527 307.6987)"
   gradientUnits="userSpaceOnUse">
			<stop
   offset="0"
   style="stop-color:#00891D"
   id="stop5218" />
			<stop
   offset="0.5812"
   style="stop-color:#00891D"
   id="stop5220" />
			<stop
   offset="0.6687"
   style="stop-color:#00891D"
   id="stop5222" />
			<stop
   offset="1"
   style="stop-color:#007818"
   id="stop5224" />
		</radialGradient>
		<path
   fill="url(#SVGID_272_)"
   d="M318.43,58.508l-6.097,15.481c-0.758,1.807-1.727,3.354-2.981,4.662    c-1.265,1.315-2.82,2.384-4.746,3.224c-1.933,0.845-4.234,1.455-6.982,1.855c-2.754,0.4-5.95,0.589-9.666,0.589    c-3.512,0-6.371-0.314-8.635-0.879c-2.258-0.563-3.919-1.373-5.049-2.365c-1.124-0.987-1.72-2.154-1.857-3.434    c-0.137-1.271,0.182-2.654,0.881-4.087l7.556-15.048h11.4l-6.286,13.636c-0.263,0.598-0.438,1.107-0.544,1.546    c-0.105,0.438-0.145,0.805-0.135,1.114s0.067,0.562,0.152,0.771c0.085,0.211,0.196,0.38,0.313,0.524    c0.175,0.218,0.442,0.408,0.784,0.572s0.758,0.301,1.229,0.41c0.47,0.109,0.994,0.191,1.551,0.247    c0.559,0.054,1.148,0.082,1.754,0.082c0.604,0,1.223-0.028,1.833-0.082c0.61-0.055,1.213-0.137,1.789-0.247    c0.575-0.109,1.124-0.246,1.624-0.41c0.499-0.164,0.951-0.354,1.334-0.572c0.146-0.078,0.346-0.17,0.587-0.315    c0.24-0.144,0.521-0.339,0.827-0.621c0.307-0.281,0.639-0.648,0.979-1.138c0.343-0.487,0.693-1.094,1.039-1.855l5.943-13.662    L318.43,58.508L318.43,58.508z"
   id="path5226" />
	</g>
</g>
<g
   id="COM_1_"
   display="none">
	
		<radialGradient
   id="SVGID_273_"
   cx="309.3796"
   cy="98.0784"
   r="286.0719"
   gradientTransform="matrix(1 0 0 -1 -0.0151 307.6987)"
   gradientUnits="userSpaceOnUse">
		<stop
   offset="0"
   style="stop-color:#00891D"
   id="stop5230" />
		<stop
   offset="0.4416"
   style="stop-color:#00891D"
   id="stop5232" />
		<stop
   offset="1"
   style="stop-color:#007818"
   id="stop5234" />
	</radialGradient>
	<polygon
   display="inline"
   fill="url(#SVGID_273_)"
   points="401.6,164.436 404.783,164.436 403.996,160.921 400.811,160.921  "
   id="polygon5236" />
	
		<radialGradient
   id="SVGID_274_"
   cx="309.3904"
   cy="98.0906"
   r="286.028"
   gradientTransform="matrix(1 0 0 -1 -0.0151 307.6987)"
   gradientUnits="userSpaceOnUse">
		<stop
   offset="0"
   style="stop-color:#00891D"
   id="stop5239" />
		<stop
   offset="0.4416"
   style="stop-color:#00891D"
   id="stop5241" />
		<stop
   offset="1"
   style="stop-color:#007818"
   id="stop5243" />
	</radialGradient>
	<path
   display="inline"
   fill="url(#SVGID_274_)"
   d="M415.291,147.427c1.314,0,2.732,0.149,4.207,0.444l0.525,0.111l-0.135-2.118   l-0.646-0.161c-1.557-0.39-3.182-0.595-4.699-0.595c-6.69,0-9.895,3.615-8.573,9.663c0.1,0.508,0.264,1.035,0.534,1.711   c0.951,2.375,2.701,4.434,5.058,5.952c2.307,1.482,4.987,2.299,7.547,2.299c1.572,0,3.074-0.218,4.465-0.646l0.336-0.104   l-1.182-2.201l-0.602,0.16c-1.195,0.313-2.501,0.473-3.876,0.473c-1.996,0-3.879-0.535-5.449-1.547   c-1.569-1.008-2.778-2.488-3.493-4.277C407.219,151.367,409.789,147.427,415.291,147.427z"
   id="path5245" />
	
		<radialGradient
   id="SVGID_275_"
   cx="309.3845"
   cy="98.0906"
   r="286.0412"
   gradientTransform="matrix(1 0 0 -1 -0.0151 307.6987)"
   gradientUnits="userSpaceOnUse">
		<stop
   offset="0"
   style="stop-color:#00891D"
   id="stop5248" />
		<stop
   offset="0.4416"
   style="stop-color:#00891D"
   id="stop5250" />
		<stop
   offset="1"
   style="stop-color:#007818"
   id="stop5252" />
	</radialGradient>
	<path
   display="inline"
   fill="url(#SVGID_275_)"
   d="M435.921,146.934c-1.857-1.194-3.931-1.825-5.998-1.825   c-6.677,0-8.746,6.036-6.488,11.675c0.996,2.495,2.783,4.666,5.029,6.111c1.866,1.203,3.948,1.839,6.022,1.839   c6.66,0,8.719-6.037,6.461-11.676C439.947,150.554,438.16,148.38,435.921,146.934z M433.684,162.414   c-1.516,0-2.891-0.39-4.084-1.158c-1.451-0.935-2.611-2.418-3.363-4.284c-1.844-4.609-0.479-9.544,4.488-9.544   c1.395,0,2.709,0.393,3.908,1.167c1.561,1.005,2.838,2.601,3.596,4.492C439.996,157.498,438.564,162.414,433.684,162.414z"
   id="path5254" />
	
		<radialGradient
   id="SVGID_276_"
   cx="309.3914"
   cy="98.0876"
   r="286.0305"
   gradientTransform="matrix(1 0 0 -1 -0.0151 307.6987)"
   gradientUnits="userSpaceOnUse">
		<stop
   offset="0"
   style="stop-color:#00891D"
   id="stop5257" />
		<stop
   offset="0.4416"
   style="stop-color:#00891D"
   id="stop5259" />
		<stop
   offset="1"
   style="stop-color:#007818"
   id="stop5261" />
	</radialGradient>
	<polygon
   display="inline"
   fill="url(#SVGID_276_)"
   points="457.732,145.38 453.953,158.314 444.559,145.38 442.109,145.38    446.253,164.436 448.962,164.436 446.016,150.931 454.096,162.043 455.852,162.043 458.988,151.17 461.885,164.436    464.593,164.436 460.447,145.38  "
   id="polygon5263" />
</g>


</svg>